<svg xmlns="http://www.w3.org/2000/svg" width="181.368" height="184.54" viewBox="0 0 181.368 184.54">
  <g id="Group_1806" data-name="Group 1806" transform="translate(-798.818 -375.999)">
    <g id="Group_1389" data-name="Group 1389" transform="translate(799.939 544.599)">
      <path id="Path_1074" data-name="Path 1074" d="M800.811,684.238v-7.567h1.527v7.458a3.208,3.208,0,1,0,6.412,0v-7.458h1.527v7.567a4.733,4.733,0,0,1-9.465,0Z" transform="translate(-800.811 -676.107)" fill="#072040"/>
      <path id="Path_1075" data-name="Path 1075" d="M830.957,685.14v5.571h-1.464v-5.226c0-1.886-.886-2.94-2.5-2.94a2.916,2.916,0,0,0-2.815,3.092v5.074h-1.464v-9.3h1.039l.285,1.458a3.908,3.908,0,0,1,3.331-1.661C829.576,681.207,830.957,682.867,830.957,685.14Z" transform="translate(-810.39 -678.091)" fill="#072040"/>
      <path id="Path_1076" data-name="Path 1076" d="M842.367,675.669h1.464v12.62h-1.464Z" transform="translate(-818.987 -675.669)" fill="#072040"/>
      <path id="Path_1077" data-name="Path 1077" d="M848.9,686.061a4.932,4.932,0,1,1,4.931,4.854A4.761,4.761,0,0,1,848.9,686.061Zm4.931,3.437a3.437,3.437,0,1,0-3.436-3.437,3.324,3.324,0,0,0,3.436,3.437Z" transform="translate(-821.843 -678.091)" fill="#072040"/>
      <path id="Path_1078" data-name="Path 1078" d="M869.074,686.061a4.736,4.736,0,0,1,4.832-4.854,4.53,4.53,0,0,1,4.521,3.339h-1.45a3.368,3.368,0,0,0-6.408,1.516,3.33,3.33,0,0,0,3.337,3.437,3.261,3.261,0,0,0,3.058-1.97h1.481a4.574,4.574,0,0,1-4.54,3.387A4.738,4.738,0,0,1,869.074,686.061Z" transform="translate(-830.668 -678.091)" fill="#072040"/>
      <path id="Path_1079" data-name="Path 1079" d="M892.437,684.117h-1.331v4.172h-1.464v-12.62h1.464v7.094h1.352l2.867-3.775h1.784l-3.392,4.459,3.736,4.841h-1.831Z" transform="translate(-839.664 -675.669)" fill="#072040"/>
      <path id="Path_1080" data-name="Path 1080" d="M920.936,681.569l-4.432,9.685c-1,2.2-1.888,2.935-3.643,2.935h-.876v-1.323h.75c1.245,0,1.684-.38,2.432-1.934l.335-.7-4.139-8.667h1.593l3.307,7.04,3.114-7.04Z" transform="translate(-849.165 -678.25)" fill="#072040"/>
      <path id="Path_1081" data-name="Path 1081" d="M929.573,686.061a4.932,4.932,0,1,1,4.931,4.854A4.76,4.76,0,0,1,929.573,686.061ZM934.5,689.5a3.437,3.437,0,1,0-3.436-3.437A3.324,3.324,0,0,0,934.5,689.5Z" transform="translate(-857.129 -678.091)" fill="#072040"/>
      <path id="Path_1082" data-name="Path 1082" d="M950.775,686.946v-5.377h1.464v5.141c0,1.827,1.018,2.946,2.66,2.946,1.658,0,2.66-1.135,2.66-2.946v-5.141h1.463v5.377a4.124,4.124,0,1,1-8.247,0Z" transform="translate(-866.403 -678.25)" fill="#072040"/>
      <path id="Path_1083" data-name="Path 1083" d="M975.48,681.483v1.385h-.949c-1.7,0-2.661,1.1-2.661,2.911v5.053h-1.464v-9.3h1.04l.238,1.416a3.382,3.382,0,0,1,2.972-1.464Z" transform="translate(-874.989 -678.212)" fill="#072040"/>
      <path id="Path_1084" data-name="Path 1084" d="M988.081,686.061a4.736,4.736,0,0,1,4.832-4.854,4.53,4.53,0,0,1,4.521,3.339h-1.45a3.368,3.368,0,0,0-6.408,1.516,3.33,3.33,0,0,0,3.337,3.437,3.26,3.26,0,0,0,3.058-1.97h1.481a4.574,4.574,0,0,1-4.54,3.387A4.738,4.738,0,0,1,988.081,686.061Z" transform="translate(-882.72 -678.091)" fill="#072040"/>
      <path id="Path_1085" data-name="Path 1085" d="M1016.616,682.718v5.571h-1.464v-5.226c0-1.886-.886-2.94-2.5-2.94a2.917,2.917,0,0,0-2.815,3.092v5.074h-1.464v-12.62h1.464v4.585a3.94,3.94,0,0,1,3.192-1.469C1015.235,678.785,1016.616,680.3,1016.616,682.718Z" transform="translate(-891.594 -675.669)" fill="#072040"/>
      <path id="Path_1086" data-name="Path 1086" d="M1036.549,681.411v9.3h-1.213l-.154-1.409a4.852,4.852,0,1,1,.019-6.467l.183-1.425Zm-1.5,4.651a3.42,3.42,0,1,0-3.411,3.437A3.322,3.322,0,0,0,1035.054,686.061Z" transform="translate(-899.619 -678.091)" fill="#072040"/>
      <path id="Path_1087" data-name="Path 1087" d="M1057.674,685.14v5.571h-1.465v-5.226c0-1.886-.886-2.94-2.5-2.94a2.917,2.917,0,0,0-2.815,3.092v5.074h-1.464v-9.3h1.04l.285,1.458a3.908,3.908,0,0,1,3.331-1.661C1056.292,681.207,1057.674,682.867,1057.674,685.14Z" transform="translate(-909.552 -678.091)" fill="#072040"/>
      <path id="Path_1088" data-name="Path 1088" d="M1067.776,686.061a4.736,4.736,0,0,1,4.833-4.854,4.53,4.53,0,0,1,4.521,3.339h-1.45a3.368,3.368,0,0,0-6.409,1.516,3.33,3.33,0,0,0,3.337,3.437,3.262,3.262,0,0,0,3.059-1.97h1.481a4.574,4.574,0,0,1-4.54,3.387A4.738,4.738,0,0,1,1067.776,686.061Z" transform="translate(-917.577 -678.091)" fill="#072040"/>
      <path id="Path_1089" data-name="Path 1089" d="M1096.16,686.628h-7.93a3.161,3.161,0,0,0,3.274,2.854,3.212,3.212,0,0,0,2.9-1.606h1.544a5.106,5.106,0,1,1,.247-1.777C1096.191,686.275,1096.176,686.452,1096.16,686.628Zm-4.656-4.036a3.166,3.166,0,0,0-3.24,2.681h6.459a3.153,3.153,0,0,0-3.219-2.681Z" transform="translate(-925.881 -678.091)" fill="#072040"/>
      <path id="Path_1090" data-name="Path 1090" d="M1109.759,690.915c-2.207,0-3.637-1.185-3.715-3.055h1.432c.078,1.106,1.029,1.7,2.33,1.7,1.271,0,2.185-.538,2.185-1.449,0-1.086-1.151-1.3-2.409-1.514-1.588-.276-3.364-.6-3.364-2.7,0-1.6,1.4-2.692,3.5-2.692s3.451,1.12,3.507,2.874h-1.385c-.056-1.005-.846-1.568-2.153-1.568-1.258,0-2.055.533-2.055,1.339,0,.984,1.07,1.162,2.312,1.36,1.6.26,3.493.557,3.493,2.836,0,1.739-1.472,2.867-3.681,2.867Z" transform="translate(-934.315 -678.091)" fill="#072040"/>
    </g>
    <g id="Group_1396" data-name="Group 1396" transform="translate(798.818 375.999)">
      <g id="Group_1395" data-name="Group 1395" transform="translate(0 106.871)">
        <g id="Group_1390" data-name="Group 1390" transform="translate(0 0.789)">
          <path id="Path_1091" data-name="Path 1091" d="M798.818,567.355h27.89v9.472H810.132v8.156H824.34v9.472H810.132v15.655H798.818Z" transform="translate(-798.818 -567.355)" fill="#072040"/>
        </g>
        <g id="Group_1391" data-name="Group 1391" transform="translate(29.47)">
          <path id="Path_1092" data-name="Path 1092" d="M851.2,587.922c0-14.077,8.025-21.97,19.865-21.97s19.865,7.959,19.865,21.97c0,14.076-8.025,22.365-19.865,22.365S851.2,602,851.2,587.922Zm28.153,0c0-7.762-3.157-12.235-8.288-12.235s-8.288,4.473-8.288,12.235,3.157,12.629,8.288,12.629S879.352,595.684,879.352,587.922Z" transform="translate(-851.199 -565.952)" fill="#072040"/>
        </g>
        <g id="Group_1392" data-name="Group 1392" transform="translate(73.544 0.789)">
          <path id="Path_1093" data-name="Path 1093" d="M929.536,567.355h16.181c9.208,0,17.1,3.157,17.1,13.813,0,10.327-7.893,14.6-17.1,14.6H940.85v14.34H929.536Zm15.392,19.471c4.474,0,6.841-1.974,6.841-5.657s-2.367-4.868-6.841-4.868H940.85v10.525Zm-1.25,5.986,7.63-7.5,13.88,24.8H952.559Z" transform="translate(-929.536 -567.355)" fill="#072040"/>
        </g>
        <g id="Group_1393" data-name="Group 1393" transform="translate(108.959)">
          <path id="Path_1094" data-name="Path 1094" d="M992.483,604.169l6.447-7.761c3.025,2.433,6.841,4.144,10,4.144,3.42,0,4.867-1.118,4.867-3.026,0-2.039-2.171-2.7-5.789-4.144l-5.328-2.236c-4.6-1.842-8.617-5.723-8.617-11.906,0-7.3,6.578-13.287,15.919-13.287a20.553,20.553,0,0,1,14.208,5.723l-5.657,7.1c-2.894-2.039-5.394-3.092-8.551-3.092-2.763,0-4.473.987-4.473,2.895,0,2.039,2.434,2.762,6.315,4.275l5.2,2.04c5.327,2.1,8.354,5.788,8.354,11.708,0,7.236-6.052,13.682-16.708,13.682A24.762,24.762,0,0,1,992.483,604.169Z" transform="translate(-992.483 -565.952)" fill="#072040"/>
        </g>
        <g id="Group_1394" data-name="Group 1394" transform="translate(141.637 0.789)">
          <path id="Path_1095" data-name="Path 1095" d="M1063.588,567.355h13.682l13.025,42.756h-11.972l-4.867-20.786c-1.053-4.078-2.105-9.275-3.157-13.551h-.264c-.921,4.341-1.973,9.472-3.026,13.551l-4.868,20.786h-11.577Zm-3.684,24.93h20.918v8.749H1059.9Z" transform="translate(-1050.564 -567.355)" fill="#072040"/>
        </g>
      </g>
      <path id="Path_1096" data-name="Path 1096" d="M950.643,424.5h-5.675v-4.787h5.675v-5.049h-5.675v-3.01h5.675V406.6h-5.675V400.52h16.009V391.2H944.969v-5.877h16.009V376H935.646v30.6h-5.674v5.049h5.674v3.01h-5.674v5.049h5.674V424.5h-5.674a15,15,0,0,0-4.094,29.423,15,15,0,0,0,28.858,0,15,15,0,0,0-4.094-29.423Zm-26.344,15a5.68,5.68,0,0,1,5.673-5.673h9.341l-11.381,10.961A5.678,5.678,0,0,1,924.3,439.494ZM940.307,455.5a5.68,5.68,0,0,1-5.258-3.553l5.259-5.065,5.259,5.065A5.681,5.681,0,0,1,940.307,455.5Zm12.376-10.721L941.3,433.821h9.341a5.67,5.67,0,0,1,2.039,10.961Z" transform="translate(-849.624 -375.999)" fill="#41b6a8"/>
    </g>
  </g>
</svg>
