<svg id="user_23_" data-name="user (23)" xmlns="http://www.w3.org/2000/svg" width="50.916" height="50.916" viewBox="0 0 50.916 50.916">
  <g id="Group_1348" data-name="Group 1348">
    <path id="Path_1046" data-name="Path 1046" d="M25.458,0A25.458,25.458,0,1,0,50.916,25.458,25.487,25.487,0,0,0,25.458,0Zm0,7.425a12.2,12.2,0,1,1-12.2,12.2A12.213,12.213,0,0,1,25.458,7.425Zm0,39.248A21.173,21.173,0,0,1,8.505,38.159a39.945,39.945,0,0,1,16.953-4.215,39.948,39.948,0,0,1,16.953,4.215A21.173,21.173,0,0,1,25.458,46.673Z" fill="#072040"/>
  </g>
</svg>
